<?xml version="1.0" encoding="utf-8"?>
<!-- Generator: Adobe Illustrator 27.9.0, SVG Export Plug-In . SVG Version: 6.00 Build 0)  -->
<svg version="1.1" id="Layer_1" xmlns="http://www.w3.org/2000/svg" xmlns:xlink="http://www.w3.org/1999/xlink" x="0px" y="0px"
	 viewBox="0 0 1080 1080" style="enable-background:new 0 0 1080 1080;" xml:space="preserve">
<style type="text/css">
	.st0{fill:#572BD6;}
	.st1{fill:#FFFFFF;}
</style>
<path class="st0" d="M806.9,0H273.1C122.3,0,0,122.3,0,273.1v533.8C0,957.7,122.3,1080,273.1,1080h533.8
	c150.8,0,273.1-122.3,273.1-273.1V273.1C1080,122.3,957.7,0,806.9,0z"/>
<g>
	<path class="st1" d="M805.8,613.8H551.1L646,297.4c7.6-25.3,30.9-42.6,57.3-42.6H958l-94.9,316.4
		C855.5,596.4,832.2,613.8,805.8,613.8z"/>
	<path class="st1" d="M375,853.1H120.3L287,297.4c7.6-25.3,30.9-42.6,57.3-42.6H599L432.3,810.5C424.7,835.8,401.4,853.1,375,853.1z
		"/>
</g>
</svg>
